<svg data-name="구성 요소 31 – 1" xmlns="http://www.w3.org/2000/svg" width="60" height="60" viewBox="0 0 60 60">
    <defs>
        <clipPath id="4g4e5q5mba">
            <path data-name="사각형 512" style="fill:#e11632" d="M0 0h60v60H0z"/>
        </clipPath>
    </defs>
    <g data-name="그룹 257">
        <g data-name="그룹 256" style="clip-path:url(#4g4e5q5mba)">
            <path data-name="패스 142" d="M48.888 24.762a23.055 23.055 0 1 0-32.72 20.9h-2.835v5h25v-5H35.5a23.067 23.067 0 0 0 13.39-20.9M25.833 42.819a18.055 18.055 0 1 1 18.055-18.057 18.077 18.077 0 0 1-18.055 18.057" transform="translate(4.167 2.564)" style="fill:#e11632"/>
            <path data-name="패스 143" d="M16.721 7.784a7.868 7.868 0 1 0 7.868 7.868 7.876 7.876 0 0 0-7.868-7.868m0 10.735a2.867 2.867 0 1 1 2.868-2.868 2.872 2.872 0 0 1-2.868 2.868" transform="translate(13.28 11.676)" style="fill:#e11632"/>
        </g>
    </g>
</svg>
